<svg width="15" height="16" viewBox="0 0 15 16" fill="none" xmlns="http://www.w3.org/2000/svg">
<path d="M13.9225 5.94917C13.9225 6.00319 13.4991 11.3584 13.2573 13.6121C13.1058 14.9952 12.2142 15.8341 10.8768 15.8579C9.84916 15.881 8.84318 15.8889 7.85343 15.8889C6.80264 15.8889 5.77503 15.881 4.77755 15.8579C3.48493 15.8269 2.59253 14.9714 2.44882 13.6121C2.20003 11.3504 1.78435 6.00319 1.77662 5.94917C1.7689 5.78631 1.82144 5.6314 1.92806 5.50589C2.03314 5.3899 2.18458 5.31999 2.34374 5.31999H13.3631C13.5215 5.31999 13.6652 5.3899 13.7788 5.50589C13.8846 5.6314 13.938 5.78631 13.9225 5.94917" fill="#606586"/>
<path d="M15.0002 3.1594C15.0002 2.83289 14.7429 2.57709 14.4339 2.57709H12.1175C11.6462 2.57709 11.2367 2.24184 11.1316 1.76917L11.0018 1.19004C10.8202 0.490155 10.1936 0 9.49051 0H6.21066C5.49983 0 4.8794 0.490155 4.69088 1.22817L4.56957 1.76996C4.46372 2.24184 4.05422 2.57709 3.58368 2.57709H1.26731C0.957484 2.57709 0.700195 2.83289 0.700195 3.1594V3.46127C0.700195 3.77984 0.957484 4.04358 1.26731 4.04358H14.4339C14.7429 4.04358 15.0002 3.77984 15.0002 3.46127V3.1594Z" fill="#2D3462"/>
</svg>