<svg width="18" height="18" viewBox="0 0 18 18" fill="none" xmlns="http://www.w3.org/2000/svg">
<path opacity="0.7" d="M16.9927 15.9532H11.2984C10.7429 15.9532 10.291 16.4123 10.291 16.9766C10.291 17.5421 10.7429 18 11.2984 18H16.9927C17.5483 18 18.0001 17.5421 18.0001 16.9766C18.0001 16.4123 17.5483 15.9532 16.9927 15.9532" fill="#606586"/>
<path d="M7.30902 3.90388L12.7049 8.26397C12.835 8.36825 12.8573 8.55959 12.7557 8.69289L6.35874 17.0282C5.95662 17.5431 5.36402 17.8345 4.72908 17.8452L1.23696 17.8882C1.05071 17.8904 0.887748 17.7614 0.845419 17.5765L0.0517547 14.1258C-0.0858138 13.4916 0.0517547 12.8358 0.453878 12.3306L6.88256 3.95548C6.98627 3.82111 7.1778 3.79746 7.30902 3.90388" fill="#2D3462"/>
<path opacity="0.7" d="M15.1203 5.66544L14.0801 6.96401C13.9753 7.09623 13.7869 7.11773 13.6568 7.01238C12.3922 5.98901 9.15405 3.36285 8.25563 2.63509C8.12441 2.52759 8.10642 2.33625 8.21224 2.20295L9.21543 0.957057C10.1255 -0.214663 11.7128 -0.322161 12.9933 0.699064L14.4642 1.87078C15.0674 2.34377 15.4695 2.96726 15.6071 3.62299C15.7658 4.3443 15.5965 5.0527 15.1203 5.66544Z" fill="#606586"/>
</svg>