<svg width="19" height="21" viewBox="0 0 19 21" fill="none" xmlns="http://www.w3.org/2000/svg">
<path d="M6.98491 17.6877C7.52518 17.5791 10.8173 17.5791 11.3575 17.6877C11.8194 17.789 12.3188 18.0258 12.3188 18.5428C12.292 19.035 11.988 19.4714 11.5681 19.7485C11.0235 20.1518 10.3844 20.4072 9.71632 20.4992C9.34683 20.5447 8.98379 20.5458 8.62719 20.4992C7.95804 20.4072 7.31895 20.1518 6.77546 19.7475C6.35442 19.4714 6.05045 19.035 6.0236 18.5428C6.0236 18.0258 6.52305 17.789 6.98491 17.6877ZM9.23502 0C11.4831 0 13.7795 1.01336 15.1436 2.69471C16.0286 3.77735 16.4346 4.85896 16.4346 6.54031V6.97771C16.4346 8.26715 16.7934 9.02717 17.5828 9.90301C18.1811 10.5482 18.3723 11.3765 18.3723 12.2751C18.3723 13.1726 18.0619 14.0247 17.44 14.7165C16.6258 15.5458 15.4776 16.0752 14.3058 16.1672C12.6077 16.3048 10.9085 16.4206 9.18669 16.4206C7.46385 16.4206 5.76571 16.3513 4.06758 16.1672C2.89467 16.0752 1.74647 15.5458 0.933384 14.7165C0.311486 14.0247 0 13.1726 0 12.2751C0 11.3765 0.192262 10.5482 0.789456 9.90301C1.60362 9.02717 1.93873 8.26715 1.93873 6.97771V6.54031C1.93873 4.81346 2.392 3.68429 3.32538 2.5789C4.7131 0.966828 6.93754 0 9.13835 0H9.23502Z" fill="#8897AD"/>
</svg>
