<svg width="17" height="14" viewBox="0 0 17 14" fill="none" xmlns="http://www.w3.org/2000/svg">
<path opacity="0.7" d="M9.011 0.00209713L8.50936 0C6.42455 0 4.52387 0.118695 3.28484 0.297489L2.51434 0.454121C2.10627 0.541264 1.64164 0.655828 1.40444 0.775273C0.536809 1.21249 0 2.0674 0 2.9824V3.06203C0.0202864 3.65851 0.558656 4.91157 0.577382 4.91157C1.44759 6.92788 4.07393 10.8179 5.9463 12.6145L6.50843 13.1365C6.66078 13.2733 6.84109 13.4269 6.98164 13.5222C7.41546 13.8407 7.95227 14 8.48908 14C9.08831 14 9.6454 13.8212 10.1011 13.4832L10.6965 12.9468L10.8236 12.8266C12.6415 11.1964 15.6143 6.9399 16.524 4.71324L16.6566 4.37707C16.8057 3.97253 16.9836 3.40572 17 3.06203C17 2.62481 16.8954 2.20713 16.6895 1.80897C16.4008 1.31165 15.9451 0.915003 15.4083 0.695642C15.0369 0.555913 13.9211 0.336553 13.9009 0.336553C12.7759 0.135453 11.0007 0.0188465 9.011 0.00209713Z" fill="#474E77"/>
</svg>
