<svg width="57" height="47" viewBox="0 0 57 47" fill="none" xmlns="http://www.w3.org/2000/svg">
<path d="M51.3748 0.625H5.62484C3.08317 0.625 0.541504 3.16667 0.541504 5.70833V41.2917C0.541504 44.0875 2.829 46.375 5.62484 46.375H51.3748C53.9165 46.375 56.4582 43.8333 56.4582 41.2917V5.70833C56.4582 3.16667 53.9165 0.625 51.3748 0.625ZM51.3748 41.0883C51.324 41.1646 51.2223 41.2408 51.1715 41.2917H5.62484V5.91167L5.82817 5.70833H51.1461C51.2223 5.75917 51.2986 5.86083 51.3494 5.91167V41.0883H51.3748ZM25.9582 32.4212L19.604 24.7708L10.7082 36.2083H46.2915L34.854 20.9583L25.9582 32.4212Z" fill="#F5F4F4"/>
</svg>
