<svg width="16" height="16" viewBox="0 0 16 16" fill="none" xmlns="http://www.w3.org/2000/svg">
<path fill-rule="evenodd" clip-rule="evenodd" d="M15.0631 14.9548H9.62335C9.31285 14.9548 9.06085 14.7028 9.06085 14.3923C9.06085 14.0818 9.31285 13.8298 9.62335 13.8298H15.0631C15.3736 13.8298 15.6256 14.0818 15.6256 14.3923C15.6256 14.7028 15.3736 14.9548 15.0631 14.9548Z" fill="#2D3462"/>
<path d="M15.0631 14.9548H9.62335C9.31285 14.9548 9.06085 14.7028 9.06085 14.3923C9.06085 14.0818 9.31285 13.8298 9.62335 13.8298H15.0631C15.3736 13.8298 15.6256 14.0818 15.6256 14.3923C15.6256 14.7028 15.3736 14.9548 15.0631 14.9548" stroke="#2D3462" stroke-width="0.5"/>
<mask id="mask0_372_5218" style="mask-type:luminance" maskUnits="userSpaceOnUse" x="0" y="0" width="15" height="16">
<path fill-rule="evenodd" clip-rule="evenodd" d="M1.00024 0.750122H13.8857V14.9548H1.00024V0.750122Z" fill="white" stroke="white" stroke-width="0.5"/>
</mask>
<g mask="url(#mask0_372_5218)">
<path fill-rule="evenodd" clip-rule="evenodd" d="M9.33294 2.2626L2.27169 11.0939C2.14344 11.2544 2.09619 11.4614 2.14344 11.6601L2.65419 13.8239L4.93344 13.7954C5.15019 13.7931 5.35044 13.6964 5.48319 13.5314C7.89594 10.5126 12.4957 4.7571 12.6262 4.58835C12.7492 4.38885 12.7972 4.10685 12.7327 3.83535C12.6667 3.5571 12.4934 3.32085 12.2437 3.1701C12.1904 3.13335 10.9267 2.15235 10.8877 2.1216C10.4122 1.7406 9.71844 1.8066 9.33294 2.2626ZM2.2102 14.9549C1.94995 14.9549 1.72345 14.7764 1.6627 14.5221L1.04845 11.9189C0.9217 11.3796 1.0477 10.8231 1.39345 10.3911L8.45845 1.5546C8.46145 1.5516 8.4637 1.54785 8.4667 1.54485C9.24145 0.618604 10.6424 0.482104 11.5875 1.24035C11.6249 1.2696 12.8797 2.2446 12.8797 2.2446C13.3357 2.5161 13.6919 3.00135 13.827 3.57585C13.9612 4.14435 13.8637 4.73085 13.551 5.2266C13.5277 5.26335 13.5075 5.29485 6.36145 14.2349C6.0172 14.6639 5.5012 14.9136 4.94695 14.9204L2.2177 14.9549H2.2102Z" fill="#2D3462"/>
<path d="M2.27169 11.0939L2.07643 10.9377L2.07638 10.9378L2.27169 11.0939ZM2.14344 11.6601L2.38675 11.6027L2.38666 11.6023L2.14344 11.6601ZM2.65419 13.8239L2.41088 13.8813L2.45692 14.0763L2.65731 14.0738L2.65419 13.8239ZM4.93344 13.7954L4.93084 13.5454L4.93031 13.5454L4.93344 13.7954ZM5.48319 13.5314L5.67797 13.6881L5.67848 13.6874L5.48319 13.5314ZM12.6262 4.58835L12.824 4.74129L12.832 4.73082L12.839 4.71956L12.6262 4.58835ZM12.7327 3.83535L12.4894 3.89305L12.4895 3.89314L12.7327 3.83535ZM12.2437 3.1701L12.1017 3.37586L12.108 3.38019L12.1145 3.38414L12.2437 3.1701ZM10.8877 2.1216L10.7314 2.31671L10.7329 2.31792L10.8877 2.1216ZM9.33294 2.2626L9.14195 2.10114L9.13768 2.10648L9.33294 2.2626ZM1.6627 14.5221L1.41938 14.5795L1.41954 14.5802L1.6627 14.5221ZM1.04845 11.9189L0.805082 11.9761L0.805131 11.9763L1.04845 11.9189ZM1.39345 10.3911L1.58863 10.5473L1.58871 10.5472L1.39345 10.3911ZM8.45845 1.5546L8.28167 1.37783L8.27186 1.38764L8.26319 1.39849L8.45845 1.5546ZM8.4667 1.54485L8.64348 1.72163L8.65133 1.71377L8.65846 1.70525L8.4667 1.54485ZM11.5875 1.24035L11.431 1.43536L11.4337 1.43748L11.5875 1.24035ZM12.8797 2.2446L12.7263 2.44201L12.7385 2.4515L12.7518 2.45941L12.8797 2.2446ZM13.827 3.57585L13.5836 3.63304L13.5836 3.63331L13.827 3.57585ZM13.551 5.2266L13.7622 5.36026L13.7624 5.35999L13.551 5.2266ZM6.36145 14.2349L6.55643 14.3913L6.55673 14.3909L6.36145 14.2349ZM4.94695 14.9204L4.94391 14.6704L4.94379 14.6704L4.94695 14.9204ZM2.2177 14.9549V15.2049L2.22086 15.2048L2.2177 14.9549ZM9.13768 2.10648L2.07643 10.9377L2.46695 11.25L9.5282 2.41873L9.13768 2.10648ZM2.07638 10.9378C1.90074 11.1576 1.83493 11.4433 1.90022 11.7179L2.38666 11.6023C2.35745 11.4794 2.38614 11.3511 2.467 11.2499L2.07638 10.9378ZM1.90013 11.7175L2.41088 13.8813L2.8975 13.7664L2.38675 11.6027L1.90013 11.7175ZM2.65731 14.0738L4.93656 14.0453L4.93031 13.5454L2.65106 13.5739L2.65731 14.0738ZM4.93603 14.0453C5.22628 14.0423 5.49753 13.9123 5.67797 13.6881L5.2884 13.3746C5.20335 13.4804 5.0741 13.5439 4.93084 13.5454L4.93603 14.0453ZM5.67848 13.6874C8.08965 10.6707 12.6918 4.91215 12.824 4.74129L12.4284 4.43542C12.2996 4.60206 7.70223 10.3545 5.2879 13.3753L5.67848 13.6874ZM12.839 4.71956C12.9989 4.46013 13.0548 4.10954 12.9759 3.77757L12.4895 3.89314C12.5396 4.10417 12.4994 4.31758 12.4134 4.45715L12.839 4.71956ZM12.9759 3.77766C12.8942 3.43295 12.6791 3.1409 12.3729 2.95607L12.1145 3.38414C12.3078 3.50081 12.4392 3.68126 12.4894 3.89305L12.9759 3.77766ZM12.3857 2.96435C12.3878 2.9658 12.3846 2.96358 12.3708 2.95315C12.3592 2.94439 12.3434 2.93231 12.3237 2.91722C12.2843 2.88711 12.2307 2.84588 12.1675 2.79713C12.0412 2.69968 11.8771 2.57278 11.7134 2.44597C11.3853 2.19178 11.0609 1.9398 11.0425 1.92529L10.7329 2.31792C10.7677 2.3454 12.04 3.33331 12.1017 3.37586L12.3857 2.96435ZM11.044 1.92651C10.4646 1.46221 9.61648 1.53997 9.14202 2.1012L9.52386 2.42401C9.82039 2.07324 10.3598 2.019 10.7314 2.3167L11.044 1.92651ZM2.2102 14.7049C2.06578 14.7049 1.93975 14.6059 1.90586 14.464L1.41954 14.5802C1.50715 14.9468 1.83412 15.2049 2.2102 15.2049V14.7049ZM1.90602 14.4647L1.29177 11.8614L0.805131 11.9763L1.41938 14.5795L1.90602 14.4647ZM1.29182 11.8617C1.18266 11.3972 1.29083 10.9194 1.58863 10.5473L1.19827 10.2349C0.804572 10.7268 0.660742 11.362 0.805082 11.9761L1.29182 11.8617ZM1.58871 10.5472L8.65371 1.71072L8.26319 1.39849L1.19819 10.235L1.58871 10.5472ZM8.63523 1.73138C8.64319 1.72342 8.64926 1.71637 8.65308 1.71175C8.65664 1.70746 8.65965 1.70355 8.65991 1.70322C8.66096 1.70186 8.65926 1.70408 8.65707 1.70673C8.6546 1.70971 8.64994 1.71517 8.64348 1.72163L8.28992 1.36808C8.28196 1.37604 8.27589 1.38309 8.27207 1.38771C8.26851 1.392 8.2655 1.39591 8.26524 1.39624C8.26419 1.39759 8.26589 1.39537 8.26808 1.39273C8.27055 1.38975 8.27521 1.38429 8.28167 1.37783L8.63523 1.73138ZM8.65846 1.70525C9.34536 0.884029 10.5915 0.761735 11.431 1.43534L11.7439 1.04536C10.6934 0.202473 9.13754 0.353179 8.27494 1.38446L8.65846 1.70525ZM11.4337 1.43748C11.4527 1.45229 11.7761 1.70361 12.0942 1.95085C12.2534 2.07456 12.4114 2.19735 12.5297 2.28921C12.5888 2.33514 12.6379 2.37334 12.6723 2.40006C12.6895 2.41342 12.703 2.42391 12.7122 2.43105C12.7168 2.43463 12.7203 2.43737 12.7227 2.43921C12.7239 2.44014 12.7248 2.44084 12.7254 2.44131C12.7257 2.44154 12.7259 2.44172 12.7261 2.44183C12.7262 2.44189 12.7262 2.44194 12.7262 2.44197C12.7263 2.44198 12.7263 2.44199 12.7263 2.442C12.7263 2.44201 12.7263 2.44201 12.8797 2.2446C13.0331 2.0472 13.0331 2.04719 13.0331 2.04718C13.0331 2.04718 13.0331 2.04717 13.033 2.04715C13.033 2.04712 13.0329 2.04708 13.0329 2.04702C13.0327 2.0469 13.0325 2.04672 13.0322 2.04649C13.0316 2.04602 13.0307 2.04532 13.0295 2.0444C13.0271 2.04255 13.0236 2.03981 13.019 2.03624C13.0098 2.02909 12.9963 2.0186 12.9791 2.00525C12.9447 1.97853 12.8956 1.94033 12.8365 1.8944C12.7182 1.80253 12.5602 1.67975 12.401 1.55604C12.0825 1.30847 11.7597 1.05767 11.7412 1.04323L11.4337 1.43748ZM12.7518 2.45941C13.1465 2.69441 13.4633 3.12106 13.5836 3.63304L14.0703 3.51867C13.9206 2.88165 13.5249 2.3378 13.0076 2.0298L12.7518 2.45941ZM13.5836 3.63331C13.7025 4.13651 13.6164 4.65423 13.3395 5.09321L13.7624 5.35999C14.111 4.80747 14.2199 4.1522 14.0703 3.5184L13.5836 3.63331ZM13.3397 5.09294C13.339 5.09404 13.3396 5.09304 13.3404 5.09182C13.3413 5.09056 13.3417 5.0899 13.3415 5.09017C13.3408 5.09126 13.3378 5.0953 13.33 5.10548C13.3145 5.12567 13.285 5.16351 13.2266 5.23744C13.1101 5.38475 12.8824 5.67109 12.4318 6.23613C11.5307 7.36597 9.73918 9.60874 6.16617 14.0788L6.55673 14.3909C10.1297 9.92097 11.9214 7.67799 12.8227 6.54789C13.2732 5.98296 13.5016 5.69579 13.6188 5.54748C13.7306 5.4061 13.7474 5.38362 13.7622 5.36026L13.3397 5.09294ZM6.16647 14.0784C5.86951 14.4485 5.42424 14.6645 4.94391 14.6704L4.94999 15.1703C5.57816 15.1627 6.16489 14.8793 6.55643 14.3913L6.16647 14.0784ZM4.94379 14.6704L2.21454 14.7049L2.22086 15.2048L4.95011 15.1703L4.94379 14.6704ZM2.2177 14.7049H2.2102V15.2049H2.2177V14.7049Z" fill="#2D3462"/>
</g>
<path fill-rule="evenodd" clip-rule="evenodd" d="M11.6675 7.26359C11.5475 7.26359 11.4275 7.22534 11.3248 7.14734L7.23575 4.00634C6.98975 3.81734 6.94325 3.46484 7.13225 3.21734C7.322 2.97134 7.6745 2.92559 7.92125 3.11459L12.011 6.25484C12.257 6.44384 12.3035 6.79709 12.1138 7.04384C12.0035 7.18784 11.8363 7.26359 11.6675 7.26359Z" fill="#2D3462"/>
</svg>
