<svg width="24" height="25" viewBox="0 0 24 25" fill="none" xmlns="http://www.w3.org/2000/svg">
<g clip-path="url(#clip0_1_13464)">
<path d="M6.99993 6.35H6.68977L6.88235 6.59313L11.8723 12.8931L11.9897 13.0413L12.1073 12.8934L17.1173 6.59336L17.3109 6.35H16.9999H6.99993ZM9.99993 13.5L10.1183 13.4079L10.1182 13.4077L10.1177 13.4071L10.1157 13.4045L10.1076 13.3941L10.076 13.3534L9.95415 13.1966L9.50399 12.6175C9.12273 12.127 8.59335 11.4461 8.00084 10.6842C6.81592 9.16052 5.37848 7.3131 4.36842 6.01802C3.9352 5.45696 4.33423 4.65 5.03993 4.65H18.9499C19.6556 4.65 20.0547 5.45695 19.6214 6.01802C18.6113 7.31316 17.1764 9.16064 15.9939 10.6843C15.4027 11.4462 14.8745 12.1271 14.4942 12.6176L14.0452 13.1968L13.9236 13.3536L13.8921 13.3943L13.8841 13.4046L13.8821 13.4072L13.8815 13.4079L13.8814 13.4081L13.9999 13.5L13.8814 13.4081L13.8499 13.4487V13.5V19.5C13.8499 19.9672 13.4671 20.35 12.9999 20.35H10.9999C10.5328 20.35 10.1499 19.9672 10.1499 19.5V13.5V13.4486L10.1184 13.408L9.99993 13.5Z" fill="#2D3462" stroke="#FDFDFD" stroke-width="0.3"/>
</g>
<defs>
<clipPath id="clip0_1_13464">
<rect width="24" height="24" fill="white" transform="translate(0 0.5)"/>
</clipPath>
</defs>
</svg>