<svg width="21" height="16" viewBox="0 0 21 16" fill="none" xmlns="http://www.w3.org/2000/svg">
<path fill-rule="evenodd" clip-rule="evenodd" d="M16.0724 2.04606C17.8162 3.36388 19.3009 5.29455 20.367 7.70909C20.4468 7.89236 20.4468 8.10667 20.367 8.28121C18.2347 13.1103 14.4383 16 10.2134 16H10.2035C5.98855 16 2.19215 13.1103 0.0597858 8.28121C-0.0199286 8.10667 -0.0199286 7.89236 0.0597858 7.70909C2.19215 2.87903 5.98855 0 10.2035 0H10.2134C12.3258 0 14.3287 0.717576 16.0724 2.04606ZM6.22803 8C6.22803 10.1333 8.01164 11.8691 10.2137 11.8691C12.4059 11.8691 14.1895 10.1333 14.1895 8C14.1895 5.85697 12.4059 4.12122 10.2137 4.12122C8.01164 4.12122 6.22803 5.85697 6.22803 8Z" fill="#474E77"/>
<path d="M12.6961 7.997C12.6961 9.32548 11.5801 10.4115 10.215 10.4115C8.83988 10.4115 7.72388 9.32548 7.72388 7.997C7.72388 7.83215 7.74381 7.67797 7.7737 7.52281H7.82352C8.92956 7.52281 9.82635 6.66948 9.8662 5.60184C9.97581 5.58342 10.0954 5.57275 10.215 5.57275C11.5801 5.57275 12.6961 6.65881 12.6961 7.997Z" fill="#8A8EA5"/>
</svg>