<svg width="35" height="35" viewBox="0 0 35 35" fill="none" xmlns="http://www.w3.org/2000/svg">
<path fill-rule="evenodd" clip-rule="evenodd" d="M4.44498 0H10.3599C12.8274 0 14.8049 2.01249 14.8049 4.48173V10.4474C14.8049 12.9324 12.8274 14.9274 10.3599 14.9274H4.44498C1.99499 14.9274 0 12.9324 0 10.4474V4.48173C0 2.01249 1.99499 0 4.44498 0ZM4.44498 20.072H10.3599C12.8274 20.072 14.8049 22.0687 14.8049 24.5537V30.5194C14.8049 32.9869 12.8274 34.9994 10.3599 34.9994H4.44498C1.99499 34.9994 0 32.9869 0 30.5194V24.5537C0 22.0687 1.99499 20.072 4.44498 20.072ZM30.555 0H24.64C22.1726 0 20.1951 2.01249 20.1951 4.48173V10.4474C20.1951 12.9324 22.1726 14.9274 24.64 14.9274H30.555C33.005 14.9274 35 12.9324 35 10.4474V4.48173C35 2.01249 33.005 0 30.555 0ZM24.64 20.072H30.555C33.005 20.072 35 22.0687 35 24.5537V30.5194C35 32.9869 33.005 34.9994 30.555 34.9994H24.64C22.1726 34.9994 20.1951 32.9869 20.1951 30.5194V24.5537C20.1951 22.0687 22.1726 20.072 24.64 20.072Z" fill="#C8C9D9"/>
<path fill-rule="evenodd" clip-rule="evenodd" d="M34.8842 31.5361C34.96 31.2093 35 30.8688 35 30.5192V28.2307C29.6233 28.4708 24.6691 27.2874 20.1951 25.2104V30.5192C20.1951 32.9867 22.1726 34.9992 24.64 34.9992H30.0661L34.8842 31.5361ZM0 6.90527V10.4473C0 12.9323 1.99499 14.9273 4.44498 14.9273H6.39253C3.94236 12.3279 1.80331 9.57848 0 6.90527ZM10.3599 20.0718H4.44498C1.99499 20.0718 0 22.0685 0 24.5535V30.5192C0 32.9867 1.99499 34.9992 4.44498 34.9992H10.3599C12.8274 34.9992 14.8049 32.9867 14.8049 30.5192V24.5535C14.8049 22.0685 12.8274 20.0718 10.3599 20.0718Z" fill="#697CE4"/>
</svg>
