<svg width="34" height="34" viewBox="0 0 34 34" fill="none" xmlns="http://www.w3.org/2000/svg">
<path fill-rule="evenodd" clip-rule="evenodd" d="M9.061 0H24.9373C30.719 0 33.983 3.2793 34 9.061V24.939C34 30.719 30.719 34 24.9373 34H9.061C3.2793 34 0 30.719 0 24.939V9.061C0 3.2793 3.2793 0 9.061 0ZM17.0834 26.962C17.8161 26.962 18.4264 26.418 18.4944 25.687V8.36401C18.5624 7.83701 18.3091 7.30831 17.8501 7.02101C17.3724 6.73201 16.7944 6.73201 16.3371 7.02101C15.8764 7.30831 15.6231 7.83701 15.6724 8.36401V25.687C15.7591 26.418 16.3694 26.962 17.0834 26.962ZM24.9051 26.962C25.6191 26.962 26.2294 26.418 26.3161 25.687V20.111C26.3654 19.5653 26.1121 19.057 25.6514 18.768C25.1941 18.479 24.6161 18.479 24.1401 18.768C23.6794 19.057 23.4261 19.5653 23.4941 20.111V25.687C23.5621 26.418 24.1724 26.962 24.9051 26.962ZM10.5722 25.687C10.5042 26.418 9.89393 26.962 9.16123 26.962C8.43023 26.962 7.81823 26.418 7.75193 25.687V13.94C7.70093 13.4113 7.95423 12.886 8.41493 12.597C8.87223 12.308 9.45193 12.308 9.91093 12.597C10.3682 12.886 10.6249 13.4113 10.5722 13.94V25.687Z" fill="#4378FF"/>
</svg>
