<svg width="35" height="26" viewBox="0 0 35 26" fill="none" xmlns="http://www.w3.org/2000/svg">
<path fill-rule="evenodd" clip-rule="evenodd" d="M24.1155 6.73408C24.1155 10.4722 21.1355 13.4696 17.4189 13.4696C13.7024 13.4696 10.7223 10.4722 10.7223 6.73408C10.7223 2.99452 13.7024 0 17.4189 0C21.1355 0 24.1155 2.99452 24.1155 6.73408ZM17.419 25.4545C11.9603 25.4545 7.2993 24.5891 7.2993 21.1275C7.2993 17.6645 11.9304 16.7676 17.419 16.7676C22.8777 16.7676 27.5387 17.633 27.5387 21.096C27.5387 24.5576 22.9076 25.4545 17.419 25.4545ZM26.9773 6.85555C26.9773 8.76116 26.4089 10.5364 25.4118 12.0121C25.3092 12.164 25.4004 12.3689 25.5813 12.4004C25.8306 12.4434 26.0884 12.4678 26.3505 12.4749C28.9645 12.5437 31.3106 10.8516 31.9588 8.3041C32.9189 4.52012 30.0998 1.12299 26.51 1.12299C26.1197 1.12299 25.7465 1.16454 25.3833 1.23904C25.3334 1.2505 25.2807 1.27343 25.2522 1.31784C25.218 1.37229 25.2437 1.44536 25.2779 1.49264C26.3562 3.01283 26.9773 4.86685 26.9773 6.85555ZM31.3063 15.1336C33.0627 15.4789 34.218 16.1838 34.6966 17.2083C35.1012 18.0493 35.1012 19.025 34.6966 19.8646C33.9644 21.4536 31.604 21.9637 30.6866 22.0955C30.4972 22.1241 30.3447 21.9594 30.3647 21.7688C30.8333 17.3659 27.1054 15.2783 26.141 14.7983C26.0997 14.7768 26.0912 14.7439 26.0954 14.7238C26.0983 14.7095 26.1154 14.6866 26.1467 14.6823C28.2336 14.6436 30.4772 14.9301 31.3063 15.1336ZM8.64988 12.4748C8.91199 12.4677 9.1684 12.4447 9.41911 12.4003C9.60002 12.3688 9.69119 12.1639 9.58863 12.012C8.59148 10.5363 8.0231 8.76106 8.0231 6.85546C8.0231 4.86676 8.64418 3.01274 9.72253 1.49255C9.75672 1.44527 9.78094 1.3722 9.74817 1.31775C9.71968 1.27477 9.66555 1.25041 9.61712 1.23895C9.25245 1.16445 8.87922 1.12289 8.48891 1.12289C4.89916 1.12289 2.08007 4.52002 3.04161 8.30401C3.68976 10.8515 6.03591 12.5436 8.64988 12.4748ZM8.90422 14.723C8.90849 14.7444 8.89995 14.776 8.86006 14.7989C7.89425 15.2789 4.16632 17.3664 4.63498 21.7679C4.65492 21.9599 4.50393 22.1233 4.31447 22.0961C3.39709 21.9642 1.03668 21.4542 0.304488 19.8652C-0.101496 19.0242 -0.101496 18.0499 0.304488 17.2088C0.783121 16.1844 1.93697 15.4795 3.69338 15.1327C4.52387 14.9307 6.76604 14.6441 8.85436 14.6828C8.8857 14.6871 8.90137 14.7101 8.90422 14.723Z" fill="#4378FF"/>
</svg>
