<svg width="71" height="60" viewBox="0 0 71 60" fill="none" xmlns="http://www.w3.org/2000/svg">
<path opacity="0.6" d="M23.2469 12.6897C24.5579 10.4189 27.8354 10.419 29.1464 12.6897L45.9338 41.7664C47.2448 44.0371 45.6061 46.8755 42.9841 46.8755H9.40915C6.78716 46.8755 5.14842 44.0371 6.45942 41.7664L23.2469 12.6897Z" fill="#4B0ECC"/>
<path opacity="0.8" d="M41.8538 5.10909C43.1648 2.83838 46.4423 2.83839 47.7533 5.10909L64.5408 34.1858C65.8518 36.4566 64.213 39.2949 61.591 39.2949H28.0161C25.3941 39.2949 23.7554 36.4566 25.0664 34.1858L41.8538 5.10909Z" fill="#DC1450"/>
<path opacity="0.8" d="M41.8803 29.3191C43.1913 27.0483 46.4688 27.0483 47.7798 29.3191L57.3665 45.9236C58.6774 48.1943 57.0387 51.0327 54.4167 51.0327H35.2434C32.6214 51.0327 30.9827 48.1943 32.2937 45.9236L41.8803 29.3191Z" fill="#FFBE16"/>
</svg>
