<svg width="35" height="35" viewBox="0 0 35 35" fill="none" xmlns="http://www.w3.org/2000/svg">
<path fill-rule="evenodd" clip-rule="evenodd" d="M15.2327 2.6582C14.0596 2.6582 13.0616 3.47339 12.7815 4.57212H22.2012C21.9211 3.47339 20.9231 2.6582 19.75 2.6582H15.2327ZM24.8624 4.57213H28.3292C32.006 4.57213 35 7.60249 35 11.324C35 11.324 34.8949 12.8994 34.8599 15.0933C34.8564 15.267 34.7724 15.4371 34.6341 15.5399C33.7919 16.1619 33.0215 16.6759 32.9515 16.7113C30.045 18.6607 26.6676 20.0323 23.0695 20.7146C22.8349 20.7607 22.6038 20.6384 22.4847 20.4293C21.4762 18.6819 19.5923 17.5442 17.4912 17.5442C15.4042 17.5442 13.5028 18.6695 12.4645 20.4186C12.3437 20.6242 12.1161 20.7429 11.8832 20.6986C8.31491 20.0146 4.93747 18.6447 2.04852 16.729L0.367684 15.5594C0.227614 15.4708 0.14007 15.3113 0.14007 15.1341C0.0875438 14.2303 0 11.324 0 11.324C0 7.60249 2.994 4.57213 6.67084 4.57213H10.1201C10.4527 2.00252 12.6063 0 15.2326 0H19.7499C22.3762 0 24.5298 2.00252 24.8624 4.57213ZM34.4048 18.9267L34.3348 18.9621C30.798 21.3368 26.5434 22.914 22.0786 23.5697C21.4483 23.6583 20.818 23.2507 20.6429 22.6127C20.2577 21.1596 19.0146 20.2026 17.5263 20.2026H17.5088H17.4738C15.9856 20.2026 14.7425 21.1596 14.3573 22.6127C14.1822 23.2507 13.5519 23.6583 12.9215 23.5697C8.45681 22.914 4.20218 21.3368 0.665416 18.9621C0.647907 18.9444 0.47282 18.8381 0.33275 18.9267C0.175171 19.0153 0.175171 19.2279 0.175171 19.2279L0.297732 28.2659C0.297732 31.9874 3.27422 35 6.95106 35H28.0316C31.7084 35 34.6849 31.9874 34.6849 28.2659L34.825 19.2279C34.825 19.2279 34.825 19.0153 34.6674 18.9267C34.5799 18.8735 34.4748 18.8912 34.4048 18.9267ZM18.8044 26.3519C18.8044 27.0962 18.2266 27.681 17.4913 27.681C16.7734 27.681 16.1781 27.0962 16.1781 26.3519V24.0659C16.1781 23.3393 16.7734 22.7368 17.4913 22.7368C18.2266 22.7368 18.8044 23.3393 18.8044 24.0659V26.3519Z" fill="#C7C9D9"/>
<path fill-rule="evenodd" clip-rule="evenodd" d="M0.272949 26.4208C7.06833 30.7183 16.1426 33.4078 22.0002 25.5C22.517 24.8023 22.9866 24.0828 23.412 23.3454C27.3877 22.5905 31.152 21.0992 34.335 18.9621L34.405 18.9267C34.4751 18.8912 34.5801 18.8735 34.6677 18.9267C34.8252 19.0153 34.8252 19.2279 34.8252 19.2279L34.6852 28.2659C34.6852 31.9874 31.7087 35 28.0318 35H6.9513C3.27446 35 0.297969 31.9874 0.297969 28.2659L0.272949 26.4208ZM24.8876 20.3066C27.8045 19.5484 30.5402 18.3287 32.9517 16.7113C33.0217 16.6759 33.7921 16.162 34.6343 15.5399C34.7726 15.4372 34.8567 15.267 34.8602 15.0934C34.8952 12.8994 35.0002 11.324 35.0002 11.324C35.0002 7.60251 32.0062 4.57214 28.3294 4.57214H26.8506C27.287 9.62816 26.931 15.2359 24.8876 20.3066Z" fill="#697CE4"/>
</svg>
