<svg width="59" height="23" viewBox="0 0 59 23" fill="none" xmlns="http://www.w3.org/2000/svg">
<path fill-rule="evenodd" clip-rule="evenodd" d="M1 9.23206C-0.333332 8.46226 -0.333328 6.53776 1 5.76796L9.25 1.00482C10.5833 0.235019 12.25 1.19727 12.25 2.73687V6.00001H50.75C55.3063 6.00001 59 9.69366 59 14.25C59 18.8064 55.3063 22.5 50.75 22.5H35.5C34.9477 22.5 34.5 22.0523 34.5 21.5C34.5 20.9477 34.9477 20.5 35.5 20.5H50.75C54.2018 20.5 57 17.7018 57 14.25C57 10.7982 54.2018 8.00001 50.75 8.00001H12.25V12.2631C12.25 13.8028 10.5833 14.765 9.25 13.9952L1 9.23206Z" fill="#697CE4"/>
</svg>
