<svg width="38" height="38" viewBox="0 0 38 38" fill="none" xmlns="http://www.w3.org/2000/svg">
<path fill-rule="evenodd" clip-rule="evenodd" d="M27.0175 17.1571L21.5266 24.2421C21.0896 24.814 20.3296 24.9641 19.7216 24.6411L19.5506 24.529L14.1357 20.4612L9.36676 26.6C9.10076 26.9591 8.68467 27.189 8.24578 27.17C7.92278 27.17 7.63778 27.056 7.37179 26.885C6.8018 26.4651 6.6498 25.6861 6.9728 25.08L7.08869 24.909L12.7107 17.5922C12.9406 17.2882 13.2826 17.0811 13.6607 17.0241C14.0407 16.9842 14.4207 17.0811 14.7437 17.3281L20.0085 21.4701L24.6045 15.5231C24.9104 15.1052 25.4215 14.8772 25.9364 14.9342C26.4285 14.9722 26.8864 15.2951 27.0935 15.7701C27.3025 16.2451 27.2455 16.7771 26.9415 17.1951L27.0175 17.1571ZM25.4406 4.8073C25.4406 4.33231 25.4786 3.85732 25.5546 3.38232H10.2617C3.79994 3.38232 0 7.22027 0 13.6802V27.7381C0 34.1809 3.79994 37.9998 10.2617 37.9998H24.3006C30.7605 37.9998 34.5605 34.1809 34.5605 27.7381V12.4072C34.0855 12.4832 33.6295 12.5383 33.1545 12.5383C28.8986 12.5383 25.4406 9.08224 25.4406 4.8073Z" fill="#C7C9D9"/>
<path fill-rule="evenodd" clip-rule="evenodd" d="M34.5608 19.8691C27.4964 32.5318 14.7884 36.296 3.93359 36.2945C5.58348 37.407 7.71616 37.9998 10.262 37.9998H24.3009C30.7608 37.9998 34.5608 34.1808 34.5608 27.738V19.8691Z" fill="#697CE4"/>
<path d="M33.4207 0C30.8938 0 28.8418 2.05197 28.8418 4.57893C28.8418 7.10589 30.8938 9.15786 33.4207 9.15786C35.9477 9.15786 37.9997 7.10589 37.9997 4.57893C37.9997 2.05197 35.9477 0 33.4207 0Z" fill="#FF133E"/>
</svg>
