<svg width="35" height="35" viewBox="0 0 35 35" fill="none" xmlns="http://www.w3.org/2000/svg">
<path fill-rule="evenodd" clip-rule="evenodd" d="M4.46072 9.7479L4.47348 16.9372C4.4763 18.5302 5.29468 20.0108 6.64207 20.8606L10.9721 23.5916C14.5438 25.8443 17.5016 27.6792 17.545 27.6692C17.5884 27.6591 20.5325 25.8668 24.0875 23.6862L28.334 21.0814C29.7116 20.2363 30.5514 18.7365 30.5518 17.1204L30.5539 9.86069L30.5554 4.64969C30.5561 2.08195 28.4748 0 25.907 0H17.5001H9.10001C6.52956 0 4.44707 2.08619 4.45165 4.65665L4.46072 9.7479ZM18.5256 6.2569C18.5256 6.94828 18.5403 7.04966 18.6453 7.08151C19.8235 7.4393 20.7574 8.15904 21.2552 9.09302C21.4821 9.51876 21.6701 10.1596 21.6701 10.5074V10.5074C21.6701 10.6316 21.5694 10.7323 21.4452 10.7323H20.6537H19.8849C19.7422 10.7323 19.6205 10.6287 19.5976 10.4878V10.4878C19.4615 9.64925 18.5639 9.01865 17.5018 9.0153C16.9765 9.01359 16.7502 9.05973 16.3724 9.24546C15.2768 9.78385 15.0064 11.009 15.802 11.8288C16.2261 12.2658 16.6712 12.4364 17.5819 12.5111C18.9479 12.623 19.7601 12.9726 20.5779 13.8005C21.336 14.568 21.6677 15.3294 21.6693 16.3062C21.6722 18.0017 20.5041 19.4239 18.6453 19.9884C18.5403 20.0202 18.5256 20.1216 18.5256 20.813V20.813C18.5256 21.2483 18.1727 21.6012 17.7374 21.6012H17.5003H17.2554C16.8243 21.6012 16.4749 21.2518 16.4749 20.8207V20.8207V20.501C16.4749 20.2258 16.2987 19.9815 16.0376 19.8946V19.8946C14.7048 19.4511 13.6305 18.3043 13.3623 17.0388C13.2001 16.2734 13.1158 16.3376 14.282 16.3376H15.0746C15.2073 16.3376 15.3219 16.4302 15.3499 16.5598V16.5598C15.4952 17.233 16.1125 17.8303 16.8456 18.007C17.1931 18.0908 17.9107 18.0592 18.2759 17.9442C19.299 17.6221 19.8777 16.6097 19.5235 15.7619C19.2269 15.0521 18.5021 14.6459 17.3693 14.5549C15.1395 14.3756 13.6352 13.1394 13.3126 11.2212C13.0352 9.5718 14.2484 7.7707 16.0376 7.1753V7.1753C16.2987 7.08839 16.4749 6.84409 16.4749 6.56889V6.24918V6.24918C16.4749 5.81811 16.8243 5.46866 17.2554 5.46866H17.5003H17.7374C18.1727 5.46866 18.5256 5.82157 18.5256 6.2569V6.2569ZM1.17945 13.0748L1.07485 13.155C0.398405 13.6738 0.00643582 14.4813 0.017363 15.3337V15.3337V15.3337C0.0281935 16.1785 0.465343 16.9606 1.17927 17.4124L1.21391 17.4343V17.4343C1.72547 17.7581 2.39309 17.3905 2.39309 16.7851V15.1742C2.39309 13.5207 2.38543 12.1684 2.376 12.1691C2.36656 12.1698 1.82817 12.5775 1.17945 13.0748ZM32.6075 15.2721C32.6075 16.9861 32.6264 18.3884 32.6496 18.3884C32.6728 18.3884 33.2109 18.073 33.8453 17.6877V17.6877C34.5615 17.2526 34.999 16.4755 34.9993 15.6374L34.9993 15.4832L34.9994 15.1573C34.9997 14.4146 34.6546 13.714 34.0658 13.2615V13.2615C33.552 12.8667 33.0138 12.4565 32.8696 12.3498V12.3498C32.7611 12.2696 32.6075 12.347 32.6075 12.482V15.2721ZM0.000546867 27.1993V30.3511C0.000546867 32.9183 2.08169 34.9995 4.64891 34.9995H17.5003H30.3516C32.9189 34.9995 35 32.9183 35 30.3511V27.3433C35 23.1325 34.9835 19.6872 34.9634 19.6872C34.9433 19.6872 31.02 22.0866 26.2449 25.0191C21.4698 27.9517 17.5333 30.3511 17.4971 30.3511C17.461 30.3511 13.5479 27.9017 8.80141 24.9081C4.05495 21.9144 0.133025 19.4503 0.0859948 19.4321C0.0179099 19.4058 0.000546867 20.9872 0.000546867 27.1993Z" fill="#C7C9D9"/>
<path fill-rule="evenodd" clip-rule="evenodd" d="M4.47349 16.9372L4.46074 9.7479L4.45167 4.65664C4.44709 2.08619 6.52957 0 9.10003 0H17.5001H25.907C28.4748 0 30.5561 2.08195 30.5554 4.64969L30.5539 9.86069L30.5519 17.1204C30.5514 18.7365 29.7116 20.2363 28.334 21.0814L24.0875 23.6862C20.5325 25.8668 17.5884 27.6591 17.545 27.6692C17.5016 27.6792 14.5438 25.8443 10.9721 23.5916L6.64208 20.8606C5.29469 20.0108 4.47632 18.5302 4.47349 16.9372ZM18.6453 7.08151C18.5404 7.04966 18.5257 6.94828 18.5257 6.2569C18.5257 5.82157 18.1728 5.46866 17.7374 5.46866H17.5003H17.2554C16.8244 5.46866 16.4749 5.81811 16.4749 6.24918V6.56889C16.4749 6.84409 16.2987 7.08839 16.0376 7.1753C14.2484 7.7707 13.0353 9.5718 13.3126 11.2212C13.6352 13.1394 15.1395 14.3756 17.3693 14.5549C18.5021 14.6459 19.2269 15.0521 19.5235 15.7619C19.8777 16.6097 19.299 17.6221 18.2759 17.9442C17.9107 18.0592 17.1932 18.0908 16.8456 18.007C16.1125 17.8303 15.4952 17.233 15.3499 16.5598C15.3219 16.4302 15.2073 16.3376 15.0747 16.3376H14.282C13.6385 16.3376 13.3757 16.3181 13.2968 16.4292C13.2326 16.5194 13.2897 16.6958 13.3624 17.0388C13.6305 18.3043 14.7048 19.4511 16.0376 19.8946C16.2987 19.9815 16.4749 20.2258 16.4749 20.501V20.8207C16.4749 21.2518 16.8244 21.6012 17.2554 21.6012H17.5003H17.7374C18.1728 21.6012 18.5257 21.2483 18.5257 20.813C18.5257 20.1216 18.5404 20.0202 18.6453 19.9884C20.5041 19.4239 21.6722 18.0017 21.6693 16.3062C21.6677 15.3294 21.336 14.568 20.5779 13.8005C19.7601 12.9726 18.9479 12.623 17.5819 12.5111C16.6712 12.4364 16.2261 12.2658 15.802 11.8288C15.0064 11.009 15.2768 9.78385 16.3724 9.24546C16.7503 9.05973 16.9765 9.01359 17.5019 9.0153C18.5639 9.01865 19.4616 9.64925 19.5976 10.4878C19.6205 10.6287 19.7422 10.7323 19.885 10.7323H20.6537H21.4452C21.5695 10.7323 21.6701 10.6316 21.6701 10.5074C21.6701 10.1596 21.4822 9.51876 21.2552 9.09302C20.7574 8.15904 19.8235 7.4393 18.6453 7.08151Z" fill="#697CE4"/>
</svg>
