<svg width="35" height="35" viewBox="0 0 35 35" fill="none" xmlns="http://www.w3.org/2000/svg">
<path fill-rule="evenodd" clip-rule="evenodd" d="M18.0712 0.36691C18.3507 0.116064 18.7204 -0.0154231 19.0988 0.00144357C27.0977 0.240896 33.7827 6.04765 34.9943 13.8086C35.002 13.8549 35.002 13.9022 34.9943 13.9485C35.0204 14.3158 34.8963 14.678 34.6494 14.9552C34.4026 15.2324 34.0533 15.4017 33.6789 15.4257L20.2398 16.3119C19.7954 16.3513 19.3546 16.2051 19.0258 15.9091C18.697 15.6131 18.5106 15.1949 18.5124 14.7571L17.609 1.5563V1.33862C17.6255 0.967358 17.7918 0.617756 18.0712 0.36691ZM17.1494 19.7637L28.7977 19.0174L28.8769 19.0485C29.3771 19.0566 29.8535 19.2595 30.2012 19.6123C30.549 19.9651 30.7396 20.4391 30.7311 20.9298C30.2721 27.6185 25.3683 33.2071 18.6948 34.6469C12.0214 36.0867 5.1803 33.032 1.90362 27.1493C0.94013 25.455 0.33128 23.5889 0.112794 21.6606C0.0280548 21.0892 -0.0090468 20.512 0.00185848 19.9347C0.0239442 12.8223 5.08773 6.68334 12.1731 5.1791C13.0309 5.01856 13.8908 5.44682 14.2651 6.22086C14.3582 6.36132 14.4328 6.51284 14.4869 6.67177C14.6197 8.72199 14.7575 10.7528 14.8947 12.775C15.003 14.3722 15.111 15.964 15.2159 17.5558C15.2105 17.9308 15.2695 18.304 15.3903 18.6597C15.6747 19.3598 16.3824 19.8039 17.1494 19.7637Z" fill="#C7C9D9"/>
<path d="M18.5419 0.00150388C18.1502 -0.0160674 17.7676 0.120913 17.4784 0.382239C17.1891 0.643565 17.017 1.00777 17 1.39455V1.62132L17.935 15.3736C17.9331 15.8297 18.126 16.2654 18.4664 16.5738C18.8067 16.8821 19.2629 17.0345 19.7229 16.9934V16.9934L33.6326 16.0701C34.0201 16.0452 34.3816 15.8688 34.6371 15.58C34.8926 15.2913 35.021 14.9138 34.994 14.5313V14.5313C35.002 14.483 35.002 14.4338 34.994 14.3855C33.74 6.30031 26.8209 0.25096 18.5419 0.00150388Z" fill="#697CE4"/>
</svg>
