<svg width="35" height="42" viewBox="0 0 35 42" fill="none" xmlns="http://www.w3.org/2000/svg">
<path fill-rule="evenodd" clip-rule="evenodd" d="M11.1708 29.6265H22.2599C23.0956 29.6265 23.7887 28.9265 23.7887 28.0824C23.7887 27.2383 23.0956 26.5589 22.2599 26.5589H11.1708C10.335 26.5589 9.64194 27.2383 9.64194 28.0824C9.64194 28.9265 10.335 29.6265 11.1708 29.6265ZM18.0607 16.2648H11.1708C10.335 16.2648 9.64194 16.9648 9.64194 17.8089C9.64194 18.653 10.335 19.3324 11.1708 19.3324H18.0607C18.8965 19.3324 19.5895 18.653 19.5895 17.8089C19.5895 16.9648 18.8965 16.2648 18.0607 16.2648ZM32.6078 14.4645C33.0869 14.459 33.6087 14.4529 34.0827 14.4529C34.5923 14.4529 35 14.8647 35 15.3794V31.9324C35 37.0382 30.9027 41.1765 25.8474 41.1765H9.62143C4.32149 41.1765 0 36.8324 0 31.4794V9.28529C0 4.17941 4.11765 0 9.19336 0H20.0786C20.6086 0 21.0163 0.432353 21.0163 0.947059V7.57647C21.0163 11.3441 24.0944 14.4324 27.8247 14.4529C28.696 14.4529 29.4642 14.4595 30.1364 14.4652C30.6594 14.4696 31.1244 14.4735 31.5347 14.4735C31.8248 14.4735 32.201 14.4692 32.6078 14.4645ZM33.1698 11.4594C31.4942 11.4656 29.5189 11.4594 28.0981 11.445C25.8436 11.445 23.9866 9.56942 23.9866 7.29236V1.8653C23.9866 0.977948 25.0527 0.53736 25.6622 1.17765C26.7653 2.33608 28.2811 3.9284 29.79 5.51348C31.2954 7.09483 32.7939 8.66899 33.869 9.79795C34.4642 10.4218 34.028 11.4574 33.1698 11.4594Z" fill="#C7C9D9"/>
<path fill-rule="evenodd" clip-rule="evenodd" d="M0.355469 34.0953C1.49141 38.1788 5.21887 41.1765 9.62152 41.1765H25.8475C30.9028 41.1765 35.0001 37.0382 35.0001 31.9324V15.3794C35.0001 14.8647 34.5924 14.4529 34.0828 14.4529C33.6088 14.4529 33.087 14.459 32.6079 14.4645L32.6077 14.4645C32.2009 14.4692 31.8249 14.4735 31.5347 14.4735C31.1244 14.4735 30.6595 14.4696 30.1365 14.4652H30.1364C29.4642 14.4595 28.6961 14.4529 27.8248 14.4529C27.3303 14.4502 26.8473 14.3936 26.3814 14.2886C24.8235 19.5851 22.151 23.5852 18.8834 26.5589H22.26C23.0957 26.5589 23.7888 27.2383 23.7888 28.0824C23.7888 28.9265 23.0957 29.6265 22.26 29.6265H14.7524C10.2215 32.3557 5.09327 33.674 0.355469 34.0953ZM27.1072 11.3213C27.4251 11.4021 27.7571 11.445 28.0982 11.445C29.519 11.4594 31.4943 11.4656 33.1699 11.4594C34.028 11.4574 34.4643 10.4218 33.869 9.79795C32.794 8.66899 31.2955 7.09483 29.7901 5.51348C29.1396 4.83009 28.4877 4.14536 27.8682 3.49463C27.8433 6.34396 27.5776 8.94657 27.1072 11.3213Z" fill="#697CE4"/>
</svg>
