<svg width="59" height="23" viewBox="0 0 59 23" fill="none" xmlns="http://www.w3.org/2000/svg">
<path fill-rule="evenodd" clip-rule="evenodd" d="M58 9.23206C59.3333 8.46226 59.3333 6.53776 58 5.76796L49.75 1.00482C48.4167 0.235019 46.75 1.19727 46.75 2.73687V6.00001H8.25C3.69365 6.00001 0 9.69366 0 14.25C0 18.8064 3.69365 22.5 8.25 22.5H23.5C24.0523 22.5 24.5 22.0523 24.5 21.5C24.5 20.9477 24.0523 20.5 23.5 20.5H8.25C4.79822 20.5 2 17.7018 2 14.25C2 10.7982 4.79822 8.00001 8.25 8.00001H46.75V12.2631C46.75 13.8028 48.4167 14.765 49.75 13.9952L58 9.23206Z" fill="#4378FF"/>
</svg>
