<svg width="34" height="36" viewBox="0 0 34 36" fill="none" xmlns="http://www.w3.org/2000/svg">
<path fill-rule="evenodd" clip-rule="evenodd" d="M32.0358 20.7221C32.6758 21.0621 33.1696 21.5989 33.5171 22.1358C34.1937 23.2453 34.1389 24.6053 33.4805 25.8042L32.2004 27.9516C31.5237 29.0968 30.2619 29.8126 28.9634 29.8126C28.3234 29.8126 27.6102 29.6337 27.025 29.2758C26.5495 28.9716 26.0008 28.8642 25.4156 28.8642C23.6052 28.8642 22.0873 30.3495 22.0324 32.1211C22.0324 34.179 20.35 35.7895 18.2469 35.7895H15.7598C13.6384 35.7895 11.9559 34.179 11.9559 32.1211C11.9194 30.3495 10.4015 28.8642 8.591 28.8642C7.9875 28.8642 7.43888 28.9716 6.98168 29.2758C6.39648 29.6337 5.66497 29.8126 5.04319 29.8126C3.72648 29.8126 2.46463 29.0968 1.78799 27.9516L0.526141 25.8042C-0.150503 24.6411 -0.187078 23.2453 0.489565 22.1358C0.782168 21.5989 1.3308 21.0621 1.95258 20.7221C2.46463 20.4716 2.79381 20.06 3.1047 19.5768C4.01908 18.0379 3.47045 16.0158 1.916 15.1032C0.105525 14.0832 -0.479681 11.8105 0.562716 10.0389L1.78799 7.92737C2.84867 6.15579 5.11634 5.52947 6.94511 6.56737C8.53613 7.42632 10.6026 6.85368 11.5353 5.33263C11.8279 4.83158 11.9925 4.29474 11.9559 3.75789C11.9194 3.06 12.1205 2.39789 12.468 1.86105C13.1446 0.751579 14.3699 0.0357895 15.7049 0H18.2835C19.6367 0 20.862 0.751579 21.5387 1.86105C21.8678 2.39789 22.0873 3.06 22.0324 3.75789C21.9959 4.29474 22.1604 4.83158 22.453 5.33263C23.3857 6.85368 25.4522 7.42632 27.0615 6.56737C28.872 5.52947 31.158 6.15579 32.2004 7.92737L33.4256 10.0389C34.4863 11.8105 33.9011 14.0832 32.0723 15.1032C30.5179 16.0158 29.9693 18.0379 30.9019 19.5768C31.1945 20.06 31.5237 20.4716 32.0358 20.7221ZM11.8275 17.9127C11.8275 20.7222 14.1501 22.9591 17.0212 22.9591C19.8924 22.9591 22.16 20.7222 22.16 17.9127C22.16 15.1033 19.8924 12.8485 17.0212 12.8485C14.1501 12.8485 11.8275 15.1033 11.8275 17.9127Z" fill="#697CE4"/>
<mask id="mask0_1_17323" style="mask-type:alpha" maskUnits="userSpaceOnUse" x="0" y="0" width="34" height="36">
<path fill-rule="evenodd" clip-rule="evenodd" d="M32.0358 20.7221C32.6758 21.0621 33.1696 21.5989 33.5171 22.1358C34.1937 23.2453 34.1389 24.6053 33.4805 25.8042L32.2004 27.9516C31.5237 29.0968 30.2619 29.8126 28.9634 29.8126C28.3234 29.8126 27.6102 29.6337 27.025 29.2758C26.5495 28.9716 26.0008 28.8642 25.4156 28.8642C23.6052 28.8642 22.0873 30.3495 22.0324 32.1211C22.0324 34.179 20.35 35.7895 18.2469 35.7895H15.7598C13.6384 35.7895 11.9559 34.179 11.9559 32.1211C11.9194 30.3495 10.4015 28.8642 8.591 28.8642C7.9875 28.8642 7.43888 28.9716 6.98168 29.2758C6.39648 29.6337 5.66497 29.8126 5.04319 29.8126C3.72648 29.8126 2.46463 29.0968 1.78799 27.9516L0.526141 25.8042C-0.150503 24.6411 -0.187078 23.2453 0.489565 22.1358C0.782168 21.5989 1.3308 21.0621 1.95258 20.7221C2.46463 20.4716 2.79381 20.06 3.1047 19.5768C4.01908 18.0379 3.47045 16.0158 1.916 15.1032C0.105525 14.0832 -0.479681 11.8105 0.562716 10.0389L1.78799 7.92737C2.84867 6.15579 5.11634 5.52947 6.94511 6.56737C8.53613 7.42632 10.6026 6.85368 11.5353 5.33263C11.8279 4.83158 11.9925 4.29474 11.9559 3.75789C11.9194 3.06 12.1205 2.39789 12.468 1.86105C13.1446 0.751579 14.3699 0.0357895 15.7049 0H18.2835C19.6367 0 20.862 0.751579 21.5387 1.86105C21.8678 2.39789 22.0873 3.06 22.0324 3.75789C21.9959 4.29474 22.1604 4.83158 22.453 5.33263C23.3857 6.85368 25.4522 7.42632 27.0615 6.56737C28.872 5.52947 31.158 6.15579 32.2004 7.92737L33.4256 10.0389C34.4863 11.8105 33.9011 14.0832 32.0723 15.1032C30.5179 16.0158 29.9693 18.0379 30.9019 19.5768C31.1945 20.06 31.5237 20.4716 32.0358 20.7221ZM11.8275 17.9127C11.8275 20.7222 14.1501 22.9591 17.0212 22.9591C19.8924 22.9591 22.16 20.7222 22.16 17.9127C22.16 15.1033 19.8924 12.8485 17.0212 12.8485C14.1501 12.8485 11.8275 15.1033 11.8275 17.9127Z" fill="#C7C9D9"/>
</mask>
<g mask="url(#mask0_1_17323)">
<path d="M51 11.5C26.2 29.1 0 13.1667 -10 3C-10 16.6 2.66667 38 9 47H33L51 11.5Z" fill="#697CE4"/>
</g>
</svg>
