<svg width="35" height="30" viewBox="0 0 35 30" fill="none" xmlns="http://www.w3.org/2000/svg">
<path fill-rule="evenodd" clip-rule="evenodd" d="M25.767 4.3469L23.3404 4.32749L23.3062 3.23006L23.272 2.13263L23.0174 1.61768C22.706 0.987976 22.2511 0.541583 21.6127 0.239134L21.1532 0.0214396L17.599 0.00537732C14.3636 -0.00924958 14.014 4.59334e-05 13.7022 0.108996C12.8804 0.396066 12.3033 0.911014 11.9372 1.68371C11.7291 2.12293 11.7196 2.18185 11.6867 3.23389L11.6525 4.32749L7.38067 4.36166L3.10879 4.39584L2.65228 4.57355C1.66367 4.95843 0.85885 5.69531 0.407398 6.6289C0.0407005 7.38704 -0.00864822 7.79666 0.0137706 9.89268L0.0330453 11.6987L8.76476 14.6081L15.9083 16.9884L25.767 4.3469ZM14.4814 18.818L8.54262 16.8385C3.93754 15.3034 0.131333 14.0333 0.0843078 14.016C0.0163679 13.9909 -0.000856324 15.1659 3.22261e-05 19.7502C0.00118475 25.1416 -0.00397876 25.902 0.265828 26.5475C0.316037 26.6676 0.375769 26.7837 0.446836 26.925C0.78305 27.5933 1.56169 28.3797 2.18607 28.6815C2.29899 28.7361 2.38232 28.7837 2.46858 28.8252C2.84499 29.006 3.27737 29.0704 6.46821 29.093L14.4814 18.818ZM10.441 29.1042L17.8301 19.6294H18.0774L26.4503 16.8385C31.0554 15.3034 34.8617 14.0333 34.9086 14.016C35.0229 13.9737 35.0337 25.2397 34.92 25.8622C34.8792 26.0853 34.7259 26.5248 34.5792 26.839C34.2374 27.5713 33.4846 28.3539 32.8069 28.6815C32.6939 28.7361 32.6106 28.7837 32.5243 28.8252C31.8944 29.1279 31.1077 29.1044 17.4965 29.1044C14.6071 29.1044 12.2957 29.1054 10.441 29.1042ZM20.1724 16.6259L29.7239 4.37856L31.8841 4.39584L32.3406 4.57355C33.3433 4.96389 34.1495 5.70761 34.5903 6.64879C34.9561 7.42983 35.0022 7.81375 34.9796 9.89268L34.9599 11.6987L26.2282 14.6081L20.1724 16.6259ZM20.4013 4.32749V3.60981V2.89214L17.5117 2.8743C15.1515 2.85974 14.6157 2.87321 14.587 2.94778C14.5677 2.99801 14.5609 3.32896 14.5718 3.68329L14.5916 4.32749H17.4965H20.4013Z" fill="#C7C9D9"/>
<path fill-rule="evenodd" clip-rule="evenodd" d="M30.0535 4.10536L29 4L10 29.5001L10.2093 29.5507L10.441 29.2536C11.6686 29.2544 13.0962 29.2543 14.7591 29.254C15.6086 29.2539 16.5195 29.2538 17.4965 29.2538C18.4738 29.2538 19.385 29.2539 20.2348 29.254C31.2198 29.2555 31.9396 29.2556 32.5243 28.9746C32.5653 28.9549 32.6057 28.9338 32.6488 28.9113C32.6965 28.8864 32.7476 28.8596 32.8069 28.831C33.4846 28.5034 34.2374 27.7208 34.5792 26.9884C34.7259 26.6743 34.8792 26.2348 34.92 26.0117C35.0337 25.3892 35.0229 14.1232 34.9086 14.1654C34.8617 14.1828 31.0554 15.4528 26.4503 16.9879L18.0774 19.7789H17.8301L20.1724 16.7754L26.2282 14.7576L34.9599 11.8481L34.9796 10.0421C35.0022 7.96319 34.9561 7.57927 34.5903 6.79824C34.1495 5.85706 33.3433 5.11334 32.3406 4.72299L31.8841 4.54528L29.7239 4.528L30.0535 4.10536Z" fill="#697CE4"/>
</svg>
